# xmcd CD database file
#
# Track frame offsets:
#	150
#	15674
#	33984
#	47492
#	66501
#	84791
#	102004
#
# Disc length: 1581 seconds
#
# Revision: 1
# Processed by: cddbd v1.5.2PL0 Copyright (c) Steve Scherf et al.
# Submitted via: CDex 1.70beta2
#
DISCID=49062b07
DTITLE=バンダ　プラネタリオ - Banada Plsnetario
DYEAR=2012
DGENRE=New Age
TTITLE0=01-人生狂奏曲
TTITLE1=02-ロガ岬　旅路は続く
TTITLE2=03-涙色のタンゴ
TTITLE3=04-地下鉄の音楽家
TTITLE4=05-ハカランダー
TTITLE5=06-魔法のランプ
TTITLE6=07-ヴァルス　クラシコ
EXTD=YEAR: 2012
EXTT0=
EXTT1=
EXTT2=
EXTT3=
EXTT4=
EXTT5=
EXTT6=
PLAYORDER=
